<svg xmlns="http://www.w3.org/2000/svg" xmlns:xlink="http://www.w3.org/1999/xlink" width="920" height="415" viewBox="0 0 920 415">
  <defs>
    <clipPath id="clip-Featured_image_920x415_healthcare_software_development_-_step-by-step_guide_for_2022">
      <rect width="920" height="415"/>
    </clipPath>
  </defs>
  <g id="Featured_image_920x415_healthcare_software_development_-_step-by-step_guide_for_2022" data-name="Featured image – 920x415_healthcare software development - step-by-step guide for 2022" clip-path="url(#clip-Featured_image_920x415_healthcare_software_development_-_step-by-step_guide_for_2022)">
    <rect width="920" height="415" fill="#fff"/>
    <g id="HEALTHCARE_SOFTWARE_DEVELOPMENT_Obszar_roboczy_1-01" data-name="HEALTHCARE_SOFTWARE_DEVELOPMENT_Obszar roboczy 1-01" transform="translate(3)">
      <rect id="Rectangle_8227" data-name="Rectangle 8227" width="914" height="415" fill="#fff"/>
      <path id="Path_16243" data-name="Path 16243" d="M498.42,370.34l78.99-125.22h22.96l22.99-36.36" fill="none" stroke="#e5e5e5" stroke-miterlimit="10" stroke-width="0.75"/>
      <path id="Path_16244" data-name="Path 16244" d="M623.36,208.76l-3.57-2.3,3.77-1.94,3.78-1.95-.2,4.24-.21,4.24Z" fill="#e4e4e4"/>
      <path id="Path_16245" data-name="Path 16245" d="M602.4,178.39v-5.77a1.024,1.024,0,0,0-1.02-1.02h-1.49a.943.943,0,0,1-.92-.72,20.306,20.306,0,0,0-2.57-6.24.95.95,0,0,1,.12-1.18l1.04-1.04a1.026,1.026,0,0,0,0-1.45l-4.08-4.08a1.026,1.026,0,0,0-1.45,0l-1.04,1.04a.938.938,0,0,1-1.18.12,20.409,20.409,0,0,0-6.24-2.57.943.943,0,0,1-.72-.92v-1.48a1.024,1.024,0,0,0-1.02-1.02h-5.77a1.024,1.024,0,0,0-1.02,1.02v1.48a.943.943,0,0,1-.72.92,20.306,20.306,0,0,0-6.24,2.57.95.95,0,0,1-1.18-.12l-1.04-1.04a1.026,1.026,0,0,0-1.45,0l-4.08,4.08a1.026,1.026,0,0,0,0,1.45l1.04,1.04a.938.938,0,0,1,.12,1.18,20.408,20.408,0,0,0-2.57,6.24.943.943,0,0,1-.92.72h-1.48a1.024,1.024,0,0,0-1.02,1.02v5.77a1.024,1.024,0,0,0,1.02,1.02H558a.952.952,0,0,1,.92.72,20.555,20.555,0,0,0,2.57,6.24.95.95,0,0,1-.12,1.18l-1.04,1.05a1.026,1.026,0,0,0,0,1.45l4.08,4.08a1.026,1.026,0,0,0,1.45,0l1.05-1.05a.938.938,0,0,1,1.18-.12,20.409,20.409,0,0,0,6.24,2.57.943.943,0,0,1,.72.92v1.49a1.024,1.024,0,0,0,1.02,1.02h5.77a1.024,1.024,0,0,0,1.02-1.02v-1.49a.943.943,0,0,1,.72-.92,20.407,20.407,0,0,0,6.24-2.57.95.95,0,0,1,1.18.12l1.05,1.05a1.026,1.026,0,0,0,1.45,0l4.08-4.08a1.026,1.026,0,0,0,0-1.45l-1.05-1.05a.938.938,0,0,1-.12-1.18,20.408,20.408,0,0,0,2.57-6.24.943.943,0,0,1,.92-.72h1.49A1.022,1.022,0,0,0,602.4,178.39Zm-23.46,12.47a15.355,15.355,0,1,1,15.35-15.36A15.355,15.355,0,0,1,578.94,190.86Z" fill="#e5e5e5"/>
      <path id="Path_16246" data-name="Path 16246" d="M430.57,54.38V45.54A1.573,1.573,0,0,0,429,43.97h-2.27a1.417,1.417,0,0,1-1.4-1.1,31.282,31.282,0,0,0-3.94-9.55,1.464,1.464,0,0,1,.19-1.81l1.6-1.6a1.563,1.563,0,0,0,0-2.21l-6.25-6.25a1.563,1.563,0,0,0-2.21,0l-1.6,1.6a1.464,1.464,0,0,1-1.81.19,31.236,31.236,0,0,0-9.56-3.94,1.434,1.434,0,0,1-1.1-1.4V15.63a1.573,1.573,0,0,0-1.57-1.57h-8.84a1.573,1.573,0,0,0-1.57,1.57V17.9a1.417,1.417,0,0,1-1.1,1.4,31.339,31.339,0,0,0-9.56,3.94,1.464,1.464,0,0,1-1.81-.19l-1.6-1.6a1.563,1.563,0,0,0-2.21,0l-6.25,6.25a1.563,1.563,0,0,0,0,2.21l1.6,1.6a1.464,1.464,0,0,1,.19,1.81,31.236,31.236,0,0,0-3.94,9.56,1.434,1.434,0,0,1-1.4,1.1h-2.27a1.573,1.573,0,0,0-1.57,1.57v8.84a1.573,1.573,0,0,0,1.57,1.57h2.27a1.417,1.417,0,0,1,1.4,1.1,31.282,31.282,0,0,0,3.94,9.55,1.464,1.464,0,0,1-.19,1.81l-1.6,1.6a1.563,1.563,0,0,0,0,2.21l6.25,6.25a1.563,1.563,0,0,0,2.21,0l1.6-1.6a1.464,1.464,0,0,1,1.81-.19,31.015,31.015,0,0,0,9.55,3.93,1.434,1.434,0,0,1,1.1,1.4V84.3a1.573,1.573,0,0,0,1.57,1.57h8.84a1.573,1.573,0,0,0,1.57-1.57V82.02a1.417,1.417,0,0,1,1.1-1.4,31.513,31.513,0,0,0,9.55-3.93,1.464,1.464,0,0,1,1.81.19l1.6,1.6a1.563,1.563,0,0,0,2.21,0l6.25-6.25a1.563,1.563,0,0,0,0-2.21l-1.6-1.6a1.464,1.464,0,0,1-.19-1.81,31.282,31.282,0,0,0,3.94-9.55,1.434,1.434,0,0,1,1.4-1.1h2.28A1.583,1.583,0,0,0,430.57,54.38Zm-35.9,20.5a24.915,24.915,0,1,1,24.9-24.93A24.909,24.909,0,0,1,394.67,74.88Z" fill="none" stroke="#e5e5e5" stroke-miterlimit="10" stroke-width="0.856"/>
      <g id="Group_27590" data-name="Group 27590">
        <path id="Path_16247" data-name="Path 16247" d="M403.04,27.25H543.35c6.49,0,11.76,5.94,11.76,13.26V309.82c0,7.33-5.26,13.26-11.76,13.26H403.04c-6.49,0-11.76-5.94-11.76-13.26V40.52C391.28,33.19,396.55,27.25,403.04,27.25Z" fill="#222837"/>
        <path id="Path_16248" data-name="Path 16248" d="M407.31,35.31H539.08c4.43,0,8.01,4.05,8.01,9.04V305.99c0,4.99-3.59,9.04-8.01,9.04H407.31c-4.43,0-8.01-4.05-8.01-9.04V44.35C399.29,39.36,402.88,35.31,407.31,35.31Z" fill="#fff"/>
        <path id="Path_16249" data-name="Path 16249" d="M432.17,31.2h82.09a4.084,4.084,0,0,1,4.08,4.08h0a10.537,10.537,0,0,1-10.33,10.54H438.59a10.541,10.541,0,0,1-10.54-10.54h0a4.084,4.084,0,0,1,4.08-4.08h.04Z" fill="#222837"/>
        <rect id="Rectangle_8228" data-name="Rectangle 8228" width="83.32" height="4.91" transform="translate(431.53 301.71)" fill="#222837"/>
      </g>
      <path id="Path_16250" data-name="Path 16250" d="M410.69,184.99H320.95V123.54H280.88" fill="none" stroke="#e5e5e5" stroke-miterlimit="10" stroke-width="0.75"/>
      <rect id="Rectangle_4391_00000153683074545517795030000006944908970461307273_" width="628.84" height="1.42" transform="translate(142.58 370.06)" fill="#1d1d1b"/>
      <rect id="Rectangle_8229" data-name="Rectangle 8229" width="20.68" height="20.68" transform="translate(419.53 212.05)" fill="#e5e5e5"/>
      <rect id="Rectangle_8230" data-name="Rectangle 8230" width="20.68" height="20.68" transform="translate(419.53 175.5)" fill="#d8d8d8"/>
      <rect id="Rectangle_8231" data-name="Rectangle 8231" width="60.03" height="6.53" transform="translate(457.34 182.58)" fill="#ececec"/>
      <rect id="Rectangle_8232" data-name="Rectangle 8232" width="60.03" height="6.53" transform="translate(457.34 219.94)" fill="#ececec"/>
      <rect id="Rectangle_8233" data-name="Rectangle 8233" width="60.03" height="6.53" transform="translate(457.34 255.66)" fill="#ececec"/>
      <path id="Path_16251" data-name="Path 16251" d="M375.33,339.62s-6.37,5.97-14.29-6.59" fill="none" stroke="#fff" stroke-linecap="round" stroke-linejoin="round" stroke-miterlimit="10" stroke-width="0.75"/>
      <rect id="Rectangle_8234" data-name="Rectangle 8234" width="18.15" height="18.15" transform="translate(516.05 63.4)" fill="#e5e5e5"/>
      <rect id="Rectangle_8235" data-name="Rectangle 8235" width="18.15" height="18.15" transform="translate(571.65 63.4)" fill="#88e8d0"/>
      <rect id="Rectangle_8236" data-name="Rectangle 8236" width="18.15" height="18.15" transform="translate(543.89 63.4)" fill="#e5e5e5"/>
      <rect id="Rectangle_8237" data-name="Rectangle 8237" width="20.67" height="20.67" transform="translate(410.69 64.5)" fill="#39d8b0"/>
      <circle id="Ellipse_1177" data-name="Ellipse 1177" cx="39.5" cy="39.5" r="39.5" transform="translate(432.8 79.44)" fill="none" stroke="#e5e5e5" stroke-miterlimit="10" stroke-width="1"/>
      <g id="Group_27591" data-name="Group 27591">
        <line id="Line_23" y2="39.47" transform="translate(473.31 99.2)" fill="none" stroke="#39d8b0" stroke-miterlimit="10" stroke-width="13.347"/>
        <line id="Line_24" x1="39.45" transform="translate(453.58 118.94)" fill="none" stroke="#39d8b0" stroke-miterlimit="10" stroke-width="13.347"/>
      </g>
      <path id="Path_13794" d="M352.07,133.54h0a23.563,23.563,0,0,0-7.81,16.88l-1.01,19.88,32.98-.74v-28Z" fill="#1d1d1b"/>
      <path id="Path_13795" d="M346.31,172.07a.248.248,0,0,0,.25-.25h0V155.21a.26.26,0,0,0-.52,0h0v16.61a.248.248,0,0,0,.25.25Z" fill="#fff"/>
      <path id="Path_13797" d="M363.93,141.68a5.975,5.975,0,0,1-5.17,2.55c-.34,0-.34-.55,0-.53a5.546,5.546,0,0,0,4.73-2.28C363.68,141.16,364.14,141.43,363.93,141.68Z" fill="#fff"/>
      <path id="Path_5574" d="M449.21,186.54l-9.73,6.96a1.987,1.987,0,0,1-1.53.34,2.031,2.031,0,0,0-1.76.51l-26.02,23.62a5.69,5.69,0,0,1-7.65,0c-3.9-3.41-9.08-8.47-9.08-8.47l5.69-12.25s8.79,8.52,9.05,8.36c2.75-1.93,19.62-14.05,23.84-17.13a7.536,7.536,0,0,0,2.28-2.64l.83-1.62a6.013,6.013,0,0,1,1.42-1.79l12.74-10.72a.687.687,0,0,1,1.02.92l-4.07,6.12Z" fill="#fbd2bd"/>
      <path id="Path_5525" d="M384.21,369.26v17.45l7.11,6.76,7.99-2.6-.14-3.92c-2.08-1.84-7.15-4.33-8.01-6.97l-.51-8.97Z" fill="#fbd2bd"/>
      <path id="Path_5526" d="M332.9,385.92c2.35-1.05,3.92-5.39,3.92-5.39l2.49-13.57-7.13-3.92-2.08,14.02c-.82,2.76-5.13,5.52-7.83,6.7l-4.72,2.13C316.77,386.34,333.8,385.4,332.9,385.92Z" fill="#fbd2bd"/>
      <path id="Path_5527" d="M365.31,223.96l4.21,42.51,14.02,105.86h11.12L391.64,255.7c-1.33-19.84-8.75-30.67-8.75-30.67Z" fill="#9db9f6"/>
      <path id="Path_5528" d="M340.4,256.13a53.57,53.57,0,0,1,5.6-19.8l6.48-11.24,12.87-1.14h2.58c4.76,0,1.62,42.59,1.62,42.59l-31.1,104.43-4.13-2.27-3-1.65Z" fill="#9db9f6"/>
      <path id="Path_5538" d="M377.57,175.59s2.06,6.83-8.15,9.01c-11.75,2.51-17.9-7.83-16.64-9.79l5.17-1.96c.72-1.23-.55-9.99-.84-13.26-.23-2.53,14.51-2.39,15.39-.65.52,2.92.89,5.87,1.12,8.83a38.381,38.381,0,0,1,0,5.03Z" fill="#e5a796"/>
      <path id="Path_5539" d="M350.92,152.68l1.11,4.39a15.417,15.417,0,0,0,1.7,2.54c.33.12,1.33-1,1.33-1,.31.37,1.7.63,2.04,1a21.518,21.518,0,0,0,8.89,5.42c3.92.8,6.07.43,8.22-2.31a15.439,15.439,0,0,0,2.94-13.71,34.214,34.214,0,0,0-.18-4.05c-.88-3.23-1.41-6.21-1.96-7.72-.7-2.29-.96-2.88-.96-2.88-.31-.29-.57-.76-.94-.84C353.66,129.22,350.92,152.68,350.92,152.68Z" fill="#fbd2bd"/>
      <circle id="Ellipse_601" cx="0.63" cy="0.63" r="0.63" transform="translate(373.59 148.68)" fill="#1d1e1c"/>
      <circle id="Ellipse_602" cx="0.63" cy="0.63" r="0.63" transform="translate(366.56 149.56)" fill="#1d1e1c"/>
      <path id="Path_5542" d="M371.48,149.76a11.835,11.835,0,0,0,.98,3.92,2.6,2.6,0,0,1,.14,1.76,1.417,1.417,0,0,1-1.58.76c-.63,0-.63-1.02,0-.98h.61c.14,0,.12-.27,0-.41a8.143,8.143,0,0,0-.47-1.62,8.891,8.891,0,0,1-.74-3.41.491.491,0,0,1,.52-.46.479.479,0,0,1,.46.46Z" fill="#e2a191"/>
      <path id="Path_5540" d="M334.67,207.61a41.188,41.188,0,0,0,1.68,13.9,67.675,67.675,0,0,1,2.5,8.22l19.55,3.3,2.55-9.58-13.77-9.05.12-5.64-.12,12.74,4.23-2.15,6.99,10.37,25.36-2.73,1.31-7.97.7-7.87,2.15-3.92s16.3,15.67,20.29,14.27,19.13-20.09,19.13-20.09l-4.11-8.39-15.02,11.83-20.49-23.9a17.022,17.022,0,0,0-8.83-6.52l-2.27-.7-.76-5.27c-1.16,0-10.91,1.72-17.47-.22l-1.23,4.56-6.64,1.62c-.78.2-1.61.31-2.43.45a13.858,13.858,0,0,0-11.75,12.51Z" fill="#9db9f6"/>
      <path id="Path_5544" d="M314.34,387.88h24.44l-.78-7.34a.738.738,0,0,0-.74-.74.76.76,0,0,0-.43.14l-1.17,1.04a5.07,5.07,0,0,1-6.29-.31l-2.16-1.96s-8.22,3.35-13.57,6.15C312.2,385.69,314.34,387.88,314.34,387.88Z" fill="#e4e4e4"/>
      <path id="Path_5545" d="M313.67,387.49l24.99-1.04-.06-.98-24.99,1.04Z" fill="#fff"/>
      <path id="Path_5548" d="M391.49,393.64l-7.83-6.99.65-6.09c1.17,0,.29.12,2.21,1.8,4.95,4.33,5.37-1.33,5.37-1.33a121.14,121.14,0,0,1,11.75,9.95s.96,2.55-.53,3.25a20.584,20.584,0,0,1-7.83.92,6.036,6.036,0,0,1-3.79-1.51Z" fill="#e4e4e4"/>
      <path id="Path_5549" d="M396.15,393.46h.41l7.3-.67-.1-.98-7.28.67a6.68,6.68,0,0,1-4.6-1.96l-8.07-6.56-.61.76,8.01,6.54A7.979,7.979,0,0,0,396.15,393.46Z" fill="#fff"/>
      <path id="Path_5550" d="M345.2,236.45c-.55,3-1.35,6.17.27,9.01a7.736,7.736,0,0,0,.96,1.31c.22.23.76.53.86.8a7.973,7.973,0,0,1-.25,2.57c-.25,2.15-.51,4.29-.78,6.44q-1.56,12.51-3.37,25.01c-2.49,17.62-5.15,35.01-7.46,52.56q-2.13,16.455-3.92,32.92c0,.31-.53.31-.49,0,1.96-18.94,4.46-37.81,7.17-56.67,2.49-17.25,5.09-34.5,7.28-51.82q.465-3.615.9-7.23c0-.92.7-2.92.2-3.72a22.754,22.754,0,0,1-1.7-2.21c-1.51-2.92-.72-6.05-.18-9.09,0-.31.51-.2.47.12Z" fill="#fff"/>
      <path id="Path_5567" d="M389.24,198.99a14.079,14.079,0,0,1-10.77,13.71.248.248,0,0,1-.29-.19.237.237,0,0,1,.17-.28,13.718,13.718,0,0,0,10.4-13.16.251.251,0,0,1,.32-.17.243.243,0,0,1,.17.17v-.08Z" fill="#fff"/>
      <path id="Path_5588" d="M431.1,187.22a3.243,3.243,0,0,0-.84,3.21,10.716,10.716,0,0,0,1.36,4.07,5.345,5.345,0,0,0,2.74,2.66,1.356,1.356,0,0,0,1.53-.24,1.9,1.9,0,0,0,.25-1.38c0-.24-.41-.24-.38,0s.11,1.16-.46,1.32a2.118,2.118,0,0,1-1.53-.5,7.116,7.116,0,0,1-1.99-2.62,10.769,10.769,0,0,1-.98-3.18c-.14-.97-.28-2.34.64-3.06.2-.15,0-.47-.2-.34Z" fill="#1d1d1b"/>
      <path id="Path_13796" d="M347.33,142.43c-.16,7.05,5.56,11.87,5.28,8.75,0-.38,1.31-2.53,1.25-2.95a67.707,67.707,0,0,0,8.99-.75c3.95-.69,9.56-5.11,10.45-8.11,1.62,1.84,2.67,3.21,2.89,3.4h0a9.633,9.633,0,0,0,0-1.86v-.32a8.583,8.583,0,0,0-1.13-2.97c-2.95-5.01-10.39-7.64-15.83-7.06a13.853,13.853,0,0,0-9.74,5.78c0,.71-1.29,1.98-1.54,2.79a10.435,10.435,0,0,0-.51,2.47A2.913,2.913,0,0,0,347.33,142.43Z" fill="#1d1d1b"/>
      <g id="Group_26668" transform="translate(28.058)">
        <path id="Path_13749" d="M349.05,137.87v3.32l-7.43,2.15s-6.45,1.57-10.56,1.37-12.87,5.09-12.87,5.09-.88-8.26,0-10.26,2.88-8.51,8.76-10.26,9.15-1.37,11.03-.87,5.62,1.49,7.24,3.49c.56.69,1.91,1.27,2.66,2.45A9.331,9.331,0,0,1,349.05,137.87Z" fill="#4d76e5"/>
        <path id="Path_13750" d="M317.79,144.91l-8.05-1.47,1.96,4.52,6.72-1.47Z" fill="#4d76e5"/>
        <path id="Path_13751" d="M318.42,149.43l-3.06,5.5-.98-2.93,4.03-4.52v1.95Z" fill="#4d76e5"/>
      </g>
      <path id="Path_13798" d="M386.44,232.17l-18.91,1.14-18.97-1.95-3.11,6.09,22.08,1.36,20.87-1.83Z" fill="#4d76e5"/>
      <path id="Path_13799" d="M377.77,150.76a14.613,14.613,0,0,1-7.44,4.03,76.442,76.442,0,0,1-13.35.91c-2.49-.23-2.71-.91-2.71-.91s.98,3.39,1.21,4.75,7.69,5.13,9.88,5.43,5.11.9,6.92,0,4.51-5.27,5.5-8.82S377.77,150.76,377.77,150.76Z" fill="#9db9f6"/>
      <path id="Path_13800" d="M358.44,156.5l-5.6-9.85" fill="#9db9f6" stroke="#a8c0e2" stroke-width="0.879"/>
      <path id="Path_16252" data-name="Path 16252" d="M385.21,218.13s-9.35-.53-12.51,1.31-8.31,1.5-12.51,1.12-13.01-6.16-13.01-6.16a25.182,25.182,0,0,0,13.77,9.05C370.19,225.83,385.21,218.13,385.21,218.13Z" fill="#4d76e5" opacity="0.18"/>
      <path id="Path_16253" data-name="Path 16253" d="M347.32,198.89l-.14,15.51a18.9,18.9,0,0,0,7.08,6.16" fill="none" stroke="#fff" stroke-linecap="round" stroke-linejoin="round" stroke-miterlimit="10" stroke-width="0.439"/>
      <path id="Path_16254" data-name="Path 16254" d="M386.72,232.88s-13.5.77-19.2,1.62-21.25,1.37-21.25,1.37l1.44-2.83,37.49-4.76Z" fill="#4d76e5" opacity="0.64"/>
      <path id="Path_5566" d="M386.32,231.32l-12.85.23a2.151,2.151,0,0,1-1.68-.53,2.189,2.189,0,0,0-1.96-.51l-10.99,1.04c-3.1.66-.09-10.05,0-8.79,3.66-.29,4.68.51,10.36,0a8.035,8.035,0,0,0,3.58-1.21l1.68-1.05a5.93,5.93,0,0,1,2.33-.9c3.27-.57,2.66-.49,8.4-1.47.86-.14,2.74,3.35,2.74,3.35Z" fill="#fbd2bd"/>
      <path id="Path_16255" data-name="Path 16255" d="M355.33,232.06l-6.77-.69-.84,1.66Z" fill="#4d76e5" opacity="0.64"/>
      <rect id="Rectangle_8238" data-name="Rectangle 8238" width="20.68" height="20.68" transform="translate(419.53 248.59)" fill="#efefef"/>
      <path id="Path_16256" data-name="Path 16256" d="M511.8,120.27h104V74.83h12.04" fill="none" stroke="#e5e5e5" stroke-miterlimit="10" stroke-width="0.75"/>
      <circle id="Ellipse_1178" data-name="Ellipse 1178" cx="2.3" cy="2.3" r="2.3" transform="translate(632.78 72.58)" fill="none" stroke="#e5e5e5" stroke-miterlimit="10" stroke-width="0.75"/>
      <circle id="Ellipse_1179" data-name="Ellipse 1179" cx="2.3" cy="2.3" r="2.3" transform="translate(269.86 121.24)" fill="none" stroke="#e5e5e5" stroke-miterlimit="10" stroke-width="0.75"/>
      <g id="Group_27594" data-name="Group 27594">
        <path id="Path_16257" data-name="Path 16257" d="M541.2,377.25l.71-12.61-9.74-1.49-1.3,16.01,7.79-.09Z" fill="#ffcfb9"/>
        <path id="Path_16258" data-name="Path 16258" d="M588.98,376.35l-2.24-12.43-9.83.83,2.48,15.86,7.55-1.9Z" fill="#ffcfb9"/>
        <path id="Path_16259" data-name="Path 16259" d="M578.56,375.56s-14.95,5.11-17.11,7.28a7.348,7.348,0,0,0-1.77,5.51h29.31v-12C588.98,376.35,583.48,380.87,578.56,375.56Z" fill="#e4e4e4"/>
        <path id="Path_16260" data-name="Path 16260" d="M530.84,375.56s-14.95,5.11-17.11,7.28a7.339,7.339,0,0,0-1.77,5.51h29.31v-12C541.26,376.35,535.75,380.87,530.84,375.56Z" fill="#e4e4e4"/>
        <line id="Line_151" data-name="Line 151" x1="25.79" transform="translate(514.02 385.45)" fill="none" stroke="#fff" stroke-miterlimit="10" stroke-width="0.519"/>
        <line id="Line_152" data-name="Line 152" x1="24.53" transform="translate(562.88 385.45)" fill="none" stroke="#fff" stroke-miterlimit="10" stroke-width="0.519"/>
        <path id="Path_16261" data-name="Path 16261" d="M574.32,368.37l14.67-1.09s-11.73-124.69-14.01-131.93-43.23-4.98-43.23-4.98a87.191,87.191,0,0,0-3.1,12.68c-1.22,7.24,0,125.32,0,125.32l15.89,1.19,8.07-107.16Z" fill="#9db9f6"/>
        <path id="Path_16262" data-name="Path 16262" d="M561.22,247.76a17.108,17.108,0,0,0,4.44,7.52,15.036,15.036,0,0,0,6.77,4.85c.33.1.43-.43.1-.53a14.575,14.575,0,0,1-6.55-4.72,16.633,16.633,0,0,1-4.23-7.13c-.03-.32-.61-.28-.53.05Z" fill="#1d1d1b"/>
        <path id="Path_16263" data-name="Path 16263" d="M571.95,246.64c1.04,15.2,3.06,30.32,4.99,45.43,2.09,15.83,4.35,31.64,6.15,47.51.84,8.35,1.68,16.7,2.32,25.09a.3.3,0,0,0,.36.12.241.241,0,0,0,.17-.17c-.98-15.31-2.87-30.55-4.87-45.76-2.07-15.79-4.35-31.58-6.2-47.42-.96-8.27-1.82-16.55-2.38-24.86a.3.3,0,0,0-.36-.12A.291.291,0,0,0,571.95,246.64Z" fill="#fff"/>
        <path id="Path_14761" d="M487.37,177.99l-15.56-1.08a.956.956,0,0,0-1.01.88.887.887,0,0,0,.06.4l2.66,6.69a3.357,3.357,0,0,0,2.31,1.98c3.27.82,10.27,2.54,10.64,2.5a1.99,1.99,0,0,1,1.65.67s11.34,18.06,17.21,27.21a5.338,5.338,0,0,0,7.37,1.56c.19-.13.37-.26.55-.41l14.62-12.79-11.88-18.77-7.92,11.88c-5.07-4.8-12.16-11.53-14.52-13.86a5.942,5.942,0,0,1-1.63-2.72l-.43-1.6a81.5,81.5,0,0,0-2.65-8.38C487.08,170.17,487.37,177.99,487.37,177.99Z" fill="#f3d3bf"/>
        <path id="Path_14764" d="M545.58,193.45c-11.47-2.95-8.68-31.52-8.68-31.52l5.36-1.98a46.3,46.3,0,0,1,3.97-4.2,1.862,1.862,0,0,0,.61-.94c.13-.75.23-1.5.31-2.32,5.57,2.38,13.86-2.15,14.96-3.05a9.626,9.626,0,0,1-.22,1.6,10.509,10.509,0,0,0,1.41,6.95,10.231,10.231,0,0,0,3.82,3.74h0C568.51,163.94,558.71,196.84,545.58,193.45Z" fill="#f3d3bf"/>
        <path id="Path_14765" d="M578.1,213.07l-.95,21.37-20.43-1.37-6.46-.43-17.49-1.17-1.13-21.97,14.8,10.24Z" fill="#f5f5f5"/>
        <path id="Path_14766" d="M561.76,152.64A18.675,18.675,0,0,1,557.8,155a14.8,14.8,0,0,1-11.03.71,56.583,56.583,0,0,1,.87-7.8c1.09-1.98,15.85-8.63,15.55-5.82C562.97,143.82,562.34,148.24,561.76,152.64Z" fill="#d7a393"/>
        <path id="Path_14767" d="M566.83,134.95s-4.97,14.1-5.35,14.52a17.882,17.882,0,0,1-8.67,4.49c-4.49.87-6.22.34-8.66-2.81-3.56-4.58-4.56-7.68-3.32-14.01.25-1.26.57-10.18.97-11.61,1.03-3.64,7.33-1.88,7.92-3.56C550.47,119.38,566.83,134.95,566.83,134.95Z" fill="#f3d3bf"/>
        <circle id="Ellipse_1098" cx="0.7" cy="0.7" r="0.7" transform="translate(543.45 136.7)" fill="#1d1e1c"/>
        <circle id="Ellipse_1099" cx="0.7" cy="0.7" r="0.7" transform="translate(551.44 137.75)" fill="#1d1e1c"/>
        <path id="Path_14768" d="M549.01,136.14a12.754,12.754,0,0,1-1.05,4.67,12.656,12.656,0,0,0-.63,2.24.985.985,0,0,0,.13.75c.26.24.75.16,1.03.14a.49.49,0,0,1,0,.98,1.847,1.847,0,0,1-1.98-.91,3.523,3.523,0,0,1,.22-2.37,16.175,16.175,0,0,0,1.41-5.51.5.5,0,0,1,1,0h-.13Z" fill="#d7a393"/>
        <path id="Path_14769" d="M565.15,128.67c-.34-.38-21.47-4.49-21.79-4.44-1.5.35-1.44.67-1.64,1.32-.66,2.3-.26,2.51-.26,2.51,12.72.36,11.88,2.93,12.95,4.65,3.11,5.13,9.15,1.98,9.37,1.59A29.285,29.285,0,0,0,565.15,128.67Z" fill="#d7a393"/>
        <path id="Path_14770" d="M525.2,169.15c3.33-3.96,12.77-9.9,16.42-10.75h0a12.567,12.567,0,0,0,4.06-1.98l1.8,4.49c1.06,2.63,4.65,14.73,4.65,14.73s6.62-12.35,7.39-13.47l3.39-5.11a9.938,9.938,0,0,0,4.22,3.28h0c.95,1.25,10.26,33.51,3.37,50.88-4.14,10.48-23.08,10.32-28.09,9.5l-11.68-.69-1.01-16.01-.14-.31-1.68,1.98-12.52-17.68S521.87,173.07,525.2,169.15Z" fill="#f5f5f5"/>
        <path id="Path_14771" d="M515.91,186.8l-6.99,10.48-12.05-10.84s.15,6.13-8.69,9.29c0,0,15.76,23.31,19.15,23.94s5.45,1.08,11.34-4.31a88.232,88.232,0,0,0,9.25-9.69Z" fill="#f5f5f5"/>
        <path id="Path_14772" d="M569.82,125.38a9.206,9.206,0,0,1,.43,9.11c-.13.28-.57,0-.41-.25a8.716,8.716,0,0,0-.44-8.6C569.27,125.37,569.7,125.13,569.82,125.38Z" fill="#fff"/>
        <path id="Path_14773" d="M562.6,240.99a15.419,15.419,0,0,0,3.22,6.95,13.4,13.4,0,0,0,5.59,4.93c.29.12.16.6-.14.48a13.78,13.78,0,0,1-5.78-5.1,15.677,15.677,0,0,1-3.39-7.27C562.09,240.68,562.55,240.68,562.6,240.99Z" fill="#1d1d1b"/>
        <path id="Path_14774" d="M537.65,123.56a4.821,4.821,0,0,1-.7-4.71,1.02,1.02,0,0,1,1.29-.54l1.98.54a8.911,8.911,0,0,1,1.5.53.974.974,0,0,1,1.18-.41c1.73.61,3.39-1.09,4.8-1.83a4.956,4.956,0,0,1,2.85-.59,10.42,10.42,0,0,1,2.78-.91,11.621,11.621,0,0,1,10.68,3.57.884.884,0,0,1,.19.75,18.434,18.434,0,0,1,2.5,1.98c.1.69,1.54,1.84,1.98,2.53a9.517,9.517,0,0,1,.85,2.38,5.276,5.276,0,0,0,.16.79c1.98,12.72-3.62,14.34-7.23,19.81l1.09-3.37c.22-5.94.4-5.42.46-9.73-2.74.29-3.74.89-6.35-.14s-2.61-2.57-3.44-4.83a1.789,1.789,0,0,0-1.55-1.17c-3.46-.18-8.91-1.5-10.99,0-.43.3-1.08-.54-1.36-.83a6.594,6.594,0,0,1-2.67-3.82Z" fill="#1d1d1b"/>
        <path id="Path_14775" d="M563.49,129.54c-4.3.85-7.92-1.98-11.11-4.49-.26-.19.1-.55.34-.35,2.99,2.43,6.53,5.19,10.65,4.38C563.67,129.07,563.8,129.48,563.49,129.54Z" fill="#fff"/>
        <path id="Path_14776" d="M568.54,197.18l19.17,1.86c.48-11.22-.24-21.79-5.36-29.59-2.85-4.28-11.78-7.92-15.29-9.15C565.6,167.71,567.13,185.41,568.54,197.18Z" fill="#f5f5f5"/>
        <path id="Path_14777" d="M530.95,186.73a161.147,161.147,0,0,0-.21,22.94c-.04.32-.47.4-.49.08a158.888,158.888,0,0,1,.17-23.09.267.267,0,0,1,.53.07Z" fill="#b2b2b2"/>
        <path id="Path_14779" d="M500.58,189.77l12.44,29.62s2.24-.36,2.35-3.55-9.81-21.58-9.81-21.58Z" fill="#e5e5e5" opacity="0.48"/>
        <path id="Path_14780" d="M561.72,156.42l-9.44,17.85-5.51-17.3-1.92,24.77v51.43l11.81.89Z" fill="#85abff"/>
        <path id="Path_14781" d="M546.91,153.71c-4.83,5.3-7.15,10.18-9.79,17.96l6.52,4.42-5.24,4.88a132.849,132.849,0,0,0,7.86,13.39C544.86,178.1,546.5,165.52,546.91,153.71Z" fill="#4d76e5" fill-rule="evenodd"/>
        <path id="Path_14782" d="M561.91,153.71c4.49,5.46,6.69,11.36,8.6,19.33l-6.89,3.87,4.71,5.24a132.448,132.448,0,0,1-9.07,12.65C559.87,180.77,561,167.39,561.91,153.71Z" fill="#4d76e5" fill-rule="evenodd"/>
        <path id="Path_14783" d="M556.72,233.07l-1.59,25.44s14.77,5.3,25.01-.35l-.4-34.42Z" fill="#f5f5f5"/>
        <path id="Path_14784" d="M544.73,224.36l1.96,31.45s-9.06,2.09-19.29-3.57l3.66-26.8Z" fill="#f5f5f5"/>
        <path id="Path_14785" d="M567.13,188.96l1.5,7.92c0,.3-.41.43-.47.12l-1.5-7.92c0-.31.42-.46.48-.13Z" fill="#b2b2b2"/>
        <path id="Path_14786" d="M533.98,228.92l45.75-5.16.07,5.34Z" fill="#e5e5e5" opacity="0.48"/>
        <path id="Path_14788" d="M520.58,217.5c.2,1.07-.16,2.61.58,3.58,1.5,1.98,4.97,2.87,9.91,4.35l44.46-2.81a13.133,13.133,0,0,0,11.45-11.88c.28-3.96.58-7.78.75-11.61l-19.17-1.86c.75,6.64,1.42,11.37,1.42,11.37l-37.41,9.73c-3.33-2.4-4.45-6.26-5.13-5.94-1.01.53-.75,2.95-.66,3.96s-1.98-1.35-2.18-1.5C519.34,209.7,520.51,217.05,520.58,217.5Z" fill="#f3d3bf"/>
        <path id="Path_14789" d="M568.61,194.81l-1.35,4.68,1.35,7.9-36.01,9.3s2.61,9.68,1.38,12.23c0,0,45.69-3.41,47.78-5.99s6.61-5.37,5.94-26.62S568.61,194.81,568.61,194.81Z" fill="#f5f5f5"/>
        <line id="Line_25" x1="30.73" y2="7.94" transform="translate(537.88 207.39)" fill="none" stroke="#b2b2b2" stroke-linecap="round" stroke-miterlimit="10" stroke-width="0.561"/>
        <g id="Group_27592" data-name="Group 27592">
          <path id="Path_16264" data-name="Path 16264" d="M547.31,136.59c-.36,2.5-2.23,4.3-4.18,4.02s-3.23-2.54-2.87-5.04,2.23-4.3,4.18-4.02S547.67,134.08,547.31,136.59Z" fill="none" stroke="#fff" stroke-miterlimit="10" stroke-width="0.698"/>
          <path id="Path_16265" data-name="Path 16265" d="M557.19,137.85c-.36,2.5-2.23,4.3-4.18,4.02s-3.23-2.54-2.87-5.04,2.23-4.3,4.18-4.02S557.55,135.34,557.19,137.85Z" fill="none" stroke="#fff" stroke-miterlimit="10" stroke-width="0.698"/>
          <path id="Path_16266" data-name="Path 16266" d="M547.31,136.59s.62-.53,2.71.35" fill="none" stroke="#fff" stroke-miterlimit="10" stroke-width="0.698"/>
          <line id="Line_153" data-name="Line 153" x2="8.37" y2="1.29" transform="translate(557.09 138.44)" fill="none" stroke="#fff" stroke-miterlimit="10" stroke-width="0.698"/>
        </g>
        <g id="Group_27593" data-name="Group 27593">
          <ellipse id="Ellipse_1100" cx="4.52" cy="3.01" rx="4.52" ry="3.01" transform="translate(560.181 143.371) rotate(-63.73)" fill="#f3d3bf"/>
        </g>
      </g>
      <g id="Group_27595" data-name="Group 27595">
        <path id="Path_16267" data-name="Path 16267" d="M345.65,60.21a24.889,24.889,0,1,0-21.3,44.99q.765.36,1.53.66a24.888,24.888,0,0,0,19.77-45.65Zm6.22,30.48a18.649,18.649,0,0,1-18.37,10.62,18.349,18.349,0,0,1-5.33-1.24c-.39-.15-.77-.32-1.15-.5a18.658,18.658,0,1,1,24.85-8.88Z" fill="#efefef"/>
        <path id="Path_16268" data-name="Path 16268" d="M318.48,91.37l-5.52,2.89a24.9,24.9,0,0,1,3.93-28.62l4.53,4.27a18.693,18.693,0,0,0-2.94,21.46Z" fill="#39d8b0"/>
        <path id="Path_16269" data-name="Path 16269" d="M328.17,100.08l-2.28,5.8q-.765-.3-1.53-.66a24.756,24.756,0,0,1-11.4-10.94l5.52-2.89a18.545,18.545,0,0,0,8.55,8.2C327.4,99.76,327.79,99.92,328.17,100.08Z" fill="#9cebd7"/>
        <path id="Path_16270" data-name="Path 16270" d="M333,107.53a24.638,24.638,0,0,1-7.11-1.65l2.28-5.8a18.349,18.349,0,0,0,5.33,1.24Z" fill="#c4f3e7"/>
      </g>
      <g id="Group_27596" data-name="Group 27596">
        <rect id="Rectangle_8239" data-name="Rectangle 8239" width="24.46" height="5.54" transform="translate(280.88 113.39)" fill="#efefef"/>
      </g>
      <g id="Group_27599" data-name="Group 27599">
        <g id="Group_27597" data-name="Group 27597">
          <path id="Path_16271" data-name="Path 16271" d="M309.68,337.88l-8.18-5.26,8.64-4.46,8.64-4.46-.46,9.71-.45,9.72Z" fill="#e5e5e5"/>
        </g>
        <g id="Group_27598" data-name="Group 27598">
          <rect id="Rectangle_8240" data-name="Rectangle 8240" width="22.99" height="11.99" transform="matrix(0.534, -0.846, 0.846, 0.534, 295.292, 349.508)" fill="#e5e5e5"/>
        </g>
      </g>
      <g id="Group_27600" data-name="Group 27600">
        <rect id="Rectangle_8241" data-name="Rectangle 8241" width="9.4" height="40.59" transform="translate(676.72 317.13)" fill="#efefef"/>
        <rect id="Rectangle_8242" data-name="Rectangle 8242" width="9.4" height="57.08" transform="translate(653.38 300.64)" fill="#efefef"/>
        <rect id="Rectangle_8243" data-name="Rectangle 8243" width="9.4" height="65.68" transform="translate(630.04 292.04)" fill="#efefef"/>
        <rect id="Rectangle_8244" data-name="Rectangle 8244" width="9.4" height="69.26" transform="translate(606.7 288.45)" fill="#efefef"/>
        <rect id="Rectangle_8245" data-name="Rectangle 8245" width="9.4" height="25.46" transform="translate(676.72 332.25)" fill="#39d8b0"/>
        <rect id="Rectangle_8246" data-name="Rectangle 8246" width="9.4" height="35.81" transform="translate(653.38 321.91)" fill="#39d8b0"/>
        <rect id="Rectangle_8247" data-name="Rectangle 8247" width="9.4" height="41.21" transform="translate(630.04 316.51)" fill="#39d8b0"/>
        <rect id="Rectangle_8248" data-name="Rectangle 8248" width="9.4" height="43.45" transform="translate(606.7 314.26)" fill="#39d8b0"/>
      </g>
    </g>
  </g>
</svg>
